<svg id="Layer_1" enable-background="new 0 0 512 512" height="512" viewBox="0 0 512 512" width="512" xmlns="http://www.w3.org/2000/svg"><g><path d="m359.314 26.103s39.884 28.718 59.012 61.538c18.499 31.741 31.692 92.259 55.536 121.441 1.159 1.418.681 3.54-.978 4.301-9.93 4.553-38.221 20.644-43.57 58.053-6.512 45.538-28.896 72.615-70.815 87.795z" fill="#eb5569"/><g><path d="m473.863 209.082c-23.844-29.181-37.038-89.7-55.536-121.441-19.128-32.82-59.012-61.538-59.012-61.538l-.063 25.662c10.424 10.247 21.414 22.732 29.075 35.877 17.271 29.635 42.543 104.862 65.226 138.465 7.645-6.796 15.132-10.798 19.333-12.724 1.658-.761 2.135-2.883.977-4.301z" fill="#e53950"/></g><path d="m329.5 504.5h-284c-4.418 0-8-3.582-8-8v-36.353c0-42.742 34.649-77.391 77.391-77.391h145.217c42.742 0 77.391 34.649 77.391 77.391v36.353c.001 4.418-3.581 8-7.999 8z" fill="#fea95c"/><path d="m260.109 382.755h-30c42.742 0 77.391 34.649 77.391 77.391v44.354h22c4.418 0 8-3.582 8-8v-36.353c0-42.742-34.649-77.392-77.391-77.392z" fill="#fe9738"/><path d="m157.5 320.612h60v97.564h-60z" fill="#ffcebf"/><path d="m187.5 320.612h30v97.564h-30z" fill="#ffb09e"/><path d="m157.5 359.247s0 37.235 30 58.929c0 0-18.691 20.871-37.598 14.241-14.98-5.253-23.457-33.195-26.331-44.574-.725-2.869.428-5.878 2.877-7.539z" fill="#eae7ea"/><path d="m217.5 359.247s0 37.235-30 58.929c0 0 18.691 20.871 37.598 14.241 14.98-5.253 23.457-33.195 26.331-44.574.725-2.869-.428-5.878-2.877-7.539z" fill="#eae7ea"/><circle cx="187.5" cy="464.577" fill="#f3f0f3" r="16"/><g fill="#ffb09e"><path d="m104.394 220.824c0 21.879-13.38 39.615-29.885 39.615s-26.093-20.369-26.093-42.248 9.588-36.983 26.093-36.983 29.885 17.738 29.885 39.616z"/><path d="m270.606 220.824c0 21.879 13.38 39.615 29.885 39.615s26.093-20.369 26.093-42.248-9.588-36.983-26.093-36.983-29.885 17.738-29.885 39.616z"/></g><path d="m91.046 243.397v-65.633c0-53.27 43.184-96.454 96.454-96.454 53.27 0 96.454 43.184 96.454 96.454v65.27c0 53.371-43.265 96.636-96.636 96.636-53.17 0-96.272-43.103-96.272-96.273z" fill="#ffcebf"/><path d="m187.5 81.31c-5.103 0-10.112.4-15 1.163 46.146 7.206 81.455 47.124 81.455 95.292v65.27c0 48.263-35.382 88.259-81.621 95.473 4.883.763 9.887 1.163 14.985 1.163 53.371 0 96.636-43.266 96.636-96.636v-65.27c0-53.271-43.184-96.455-96.455-96.455z" fill="#ffb09e"/><path d="m187.5 64.031c-147.923 0-106.256 127.685-103.067 134.54 2.997 6.452 6.613 24.009 6.613 24.009s20.549-16.513 19.887-22.814c-1.059-10.069-6.89-71.924 18.55-66.093 25.431 5.831 35.904 10.069 57.167 10.069s31.735-4.238 57.167-10.069c25.44-5.831 19.61 56.023 18.55 66.093-.663 6.302 21.589 22.871 21.589 22.871s1.914-17.614 4.91-24.066c4.74-10.193 46.557-134.54-101.366-134.54z" fill="#97756e"/><g fill="#82635e"><path d="m117.178 137.961c-5.158-1.282-10.888-2.727-17.696-4.288-18.358-4.208-20.432 26.828-19.766 48.219 1.894 9.077 4.078 15.306 4.717 16.679 2.997 6.452 6.613 24.009 6.613 24.009s20.55-16.513 19.887-22.814c-.836-7.935-4.629-48.016 6.245-61.805z"/><path d="m187.5 64.031c-5.202 0-10.161.163-14.904.468 106.507 6.77 99.426 85.976 90.902 119.691-.296 7.206-.866 13.036-1.133 15.575-.663 6.302 21.589 22.871 21.589 22.871s1.914-17.614 4.91-24.066c4.742-10.192 46.559-134.539-101.364-134.539z"/></g><path d="m307.743 158h-242c-3.314 0-6-2.686-6-6v-30c0-3.314 2.686-6 6-6h242c3.314 0 6 2.686 6 6v30c0 3.314-2.686 6-6 6z" fill="#8379c1"/><path d="m307.743 116h-30c3.314 0 6 2.686 6 6v30c0 3.314-2.686 6-6 6h30c3.314 0 6-2.686 6-6v-30c0-3.314-2.686-6-6-6z" fill="#6e61b6"/><path d="m330.5 7.5h30v497h-30z" fill="#dd7f66" transform="matrix(-1 0 0 -1 691 512)"/><path d="m315.5 441.93c-8.284 0-15-6.716-15-15v-34c0-8.284 6.716-15 15-15 8.284 0 15 6.716 15 15v34c0 8.284-6.716 15-15 15z" fill="#ffb09e"/><path d="m365.057 473h-31.106c-6.834 0-12.374-5.54-12.374-12.374v-45.175c0-6.834 5.54-12.374 12.374-12.374h31.106c6.834 0 12.374 5.54 12.374 12.374v45.175c0 6.834-5.54 12.374-12.374 12.374z" fill="#ffcebf"/><path d="m365.057 403.077h-30c6.834 0 12.374 5.54 12.374 12.374v45.175c0 6.834-5.54 12.374-12.374 12.374h30c6.834 0 12.374-5.54 12.374-12.374v-45.175c0-6.834-5.54-12.374-12.374-12.374z" fill="#ffb09e"/><g><path d="m479.666 204.336c-22.731-27.779-35.998-88.136-54.864-120.471-15.978-27.417-45.22-51.638-56.805-60.603v-15.762c0-4.142-3.357-7.5-7.5-7.5h-30c-4.143 0-7.5 3.358-7.5 7.5v175.994c-5.101-5.616-11.783-9.001-19.666-9.655.453-2.66.854-5.45 1.18-8.339h3.23c7.444 0 13.5-6.056 13.5-13.5v-30c0-7.444-6.056-13.5-13.5-13.5h-10.913c-7.063-15.136-18.373-27.169-33.691-35.793-27.5-16.93-84.72-20.24-120.133-11.546-4.033.945-6.536 4.981-5.59 9.014s4.992 6.538 9.014 5.589c46.521-10.576 114.151-3.048 133.392 32.736h-184.222c5.28-8.389 12.386-15.412 21.228-20.933 3.513-2.194 4.583-6.821 2.389-10.334-2.192-3.514-6.82-4.582-10.334-2.39-13.491 8.424-23.7 19.747-30.389 33.657h-12.749c-7.444 0-13.5 6.056-13.5 13.5v30c0 7.444 6.056 13.5 13.5 13.5h3.96c.261 2.926.598 5.743.989 8.423-46.808 3.875-35.886 110.796 15.254 91.797 4.187 19.201 13.77 36.832 27.998 51.052 10.428 10.433 22.687 18.371 36.054 23.515v14.985l-27.762 18.826c-.525.356-1.013.749-1.479 1.163h-5.869c-46.807-.001-84.888 38.08-84.888 84.889v36.35c0 8.547 6.953 15.5 15.5 15.5h283.997c.169 0 .334-.014.5-.025.166.011.331.025.5.025h30c4.143 0 7.5-3.358 7.5-7.5v-24.243c9.564-1.43 16.931-9.675 16.931-19.631v-45.175c0-9.956-7.366-18.202-16.931-19.631v-32.24c10.585-4.379 19.707-9.482 27.763-15.559 3.307-2.494 3.966-7.197 1.471-10.504-2.493-3.307-7.195-3.966-10.504-1.472-5.554 4.19-11.745 7.866-18.73 11.146v-304.604c12.782 10.817 32.435 29.251 43.846 48.831 7.404 12.706 14.02 30.488 21.024 49.314 9.26 24.891 18.809 50.561 31.665 68.491-12.942 7.201-37.527 25.358-42.646 61.152-2.385 16.685-6.901 30.419-13.807 41.985-2.123 3.557-.962 8.161 2.595 10.284 3.497 2.105 8.147.993 10.284-2.595 7.944-13.307 13.104-28.861 15.777-47.552 4.736-33.122 29.041-47.607 39.271-52.297 2.913-1.335 4.999-3.892 5.723-7.013.727-3.132-.026-6.358-2.063-8.851zm-141.669-189.336h15v380.577h-15zm-15 383.882c-5.371 3.562-8.923 9.655-8.923 16.568v18.84c-3.457-.667-6.077-3.712-6.077-7.361v-34c.353-9.929 14.65-9.922 15 0zm0-142.796v115.634c-10.451-3.965-23.081 1.441-27.641 11.198-11.009-5.024-23.026-7.658-35.248-7.658h-5.869c-.466-.414-.955-.807-1.479-1.163l-27.761-18.825v-15.16c32.001-12.466 56.365-40.321 63.961-74.426 12.399 5.215 26.321 1.191 34.037-9.6zm-99.461 116.318 20.537 13.926c-5.353 21.016-13.763 36.311-21.459 39.01-8.495 2.979-17.778-2.379-23.625-6.903 16.043-14.875 22.193-33.653 24.547-46.033zm76.952-183.694c30.888.14 20.509 80.67-9.277 61.257.152-2.294.237-4.605.237-6.937v-19.96c.768-6.844 2.544-17.743 4.211-21.337.762-1.638 2.545-6.304 4.38-13.007.15-.004.299-.016.449-.016zm-13.768-8.345c-.025.101-.052.201-.073.302-1.864 7.776-3.87 13.191-4.594 14.748-1.496 3.228-2.699 8.234-3.602 13.061-4.206-3.759-7.468-7.161-8.513-9.009.678-6.782 1.743-20.505.974-33.967h18.498c-.689 5.503-1.664 10.541-2.69 14.865zm-219.477-56.865h238.998v27h-238.998zm35.139 42c-.775 13.541.313 27.376.991 34.112-.904 1.819-3.932 5.248-7.864 9.045-1.265-4.882-2.792-10.052-4.27-13.23-.815-1.825-4.881-13.965-6.469-29.927zm-27.873 87.44c-21.654-.108-27.636-62.546-.919-64.198 1.745 7.051 3.466 11.758 4.038 12.991 1.845 3.966 4.535 15.044 5.921 21.627v20.04c0 2.207.076 4.401.212 6.584-2.41 1.606-5.538 2.956-9.252 2.956zm24.04-9.54v-17.273c20.843-17.402 20.096-24.681 19.839-27.14-.636-6.056-1.842-20.176-.982-33.487h138.483c.859 13.335-.345 27.439-.979 33.477-.266 2.503-1.037 9.916 21.538 27.381v16.672c.207 78.659-96.486 118.99-151.897 63.136-16.767-16.759-26.002-39.05-26.002-62.766zm88.77 103.77c7.788 0 15.376-.866 22.679-2.495v14.551c-.002.316-.446 29.953-22.5 49.354-22.054-19.402-22.498-49.039-22.5-49.354v-14.453c7.25 1.581 14.722 2.397 22.321 2.397zm-11.312 71.266c-5.849 4.526-15.13 9.882-23.624 6.903-7.696-2.698-16.104-17.993-21.459-39.01l20.537-13.926c2.354 12.381 8.505 31.159 24.546 46.033zm-131.007 78.064v-36.35c0-38.538 31.352-69.89 69.889-69.89h1.559c4.104 16.022 13.483 43.103 30.972 49.235 3.458 1.212 6.869 1.73 10.182 1.73 12.521-.002 23.57-7.415 29.897-12.747 8.403 7.537 25.555 16.673 40.079 11.017 17.489-6.132 26.869-33.216 30.972-49.235h1.559c11.52 0 22.814 2.837 32.889 8.217v28.454c0 11.928 9.332 21.713 21.077 22.45v11.245c0 6.913 3.552 13.007 8.923 16.568v19.806h-277.498c-.276 0-.5-.224-.5-.5zm292.997.5v-16.5h15v16.5zm31.931-81.549v45.175c0 2.688-2.186 4.874-4.874 4.874h-31.105c-2.688 0-4.874-2.187-4.874-4.874v-45.175c0-2.688 2.186-4.874 4.874-4.874h31.105c2.687 0 4.874 2.186 4.874 4.874z"/><path d="m187.499 441.077c-12.958 0-23.5 10.542-23.5 23.5 1.291 31.176 45.714 31.167 47 0-.001-12.958-10.542-23.5-23.5-23.5zm0 32c-4.686 0-8.5-3.813-8.5-8.5.428-11.261 16.574-11.258 17 0 0 4.687-3.814 8.5-8.5 8.5z"/><path d="m179.604 268.368c5.977 1.561 9.812 1.561 15.789 0 9.521-2.844 5.9-16.687-3.789-14.514-3.492.912-4.719.912-8.211 0-4.006-1.044-8.104 1.354-9.151 5.362-1.046 4.008 1.354 8.105 5.362 9.152z"/><path d="m169.166 188.885c1.983-3.636.645-8.192-2.992-10.176-10.291-5.614-17.008-7.286-28.724-7.153-4.142.047-7.462 3.443-7.415 7.584.047 4.113 3.395 7.416 7.498 7.415h.087c9.232-.111 13.247.889 21.371 5.322 3.565 1.965 8.181.678 10.175-2.992z"/><path d="m212.506 193.04c1.263 0 2.542-.319 3.717-.991 8.033-4.595 12.007-5.669 21.26-5.75 4.143-.036 7.471-3.423 7.434-7.565-.034-4.143-3.43-7.473-7.565-7.434-11.723.103-18.398 1.908-28.576 7.728-3.596 2.057-4.843 6.638-2.787 10.234 1.384 2.421 3.915 3.778 6.517 3.778z"/><path d="m209.995 292.604c3.619-2.014 4.92-6.581 2.906-10.201-2.016-3.619-6.582-4.921-10.201-2.906-9.377 5.219-21.027 5.219-30.404 0-3.62-2.016-8.185-.713-10.201 2.906-2.014 3.62-.713 8.187 2.906 10.201 13.878 7.724 31.118 7.724 44.994 0z"/><path d="m145.499 209.632c-4.143 0-7.5 3.358-7.5 7.5v6c.344 9.931 14.659 9.923 15 0v-6c0-4.142-3.357-7.5-7.5-7.5z"/><path d="m229.498 209.632c-4.143 0-7.5 3.358-7.5 7.5v6c.344 9.931 14.659 9.923 15 0v-6c0-4.142-3.357-7.5-7.5-7.5z"/></g></g></svg>